[
  {
    "pts_time": "0.000000",
    "duration_time": "0.064000"
  },
  {
    "pts_time": "0.064000",
    "duration_time": "0.064000"
  },
  {
    "pts_time": "0.128000",
    "duration_time": "0.064000"
  },
  {
    "pts_time": "0.192000",
    "duration_time": "0.064000"
  },
  {
    "pts_time": "0.256000",
    "duration_time": "0.064000"
  },
  {
    "pts_time": "0.320000",
    "duration_time": "0.064000"
  },
  {
    "pts_time": "0.384000",
    "duration_time": "0.064000"
  },
  {
    "pts_time": "0.448000",
    "duration_time": "0.064000"
  },
  {
    "pts_time": "0.512000",
    "duration_time": "0.064000"
  },
  {
    "pts_time": "0.576000",
    "duration_time": "0.064000"
  },
  {
    "pts_time": "0.640000",
    "duration_time": "0.064000"
  },
  {
    "pts_time": "0.704000",
    "duration_time": "0.064000"
  },
  {
    "pts_time": "0.768000",
    "duration_time": "0.064000"
  },
  {
    "pts_time": "0.832000",
    "duration_time": "0.064000"
  },
  {
    "pts_time": "0.896000",
    "duration_time": "0.064000"
  },
  {
    "pts_time": "0.960000",
    "duration_time": "0.040000"
  }
]
